<?xml version="1.0" encoding="utf-8"?>
<!-- Generator: Adobe Illustrator 16.0.0, SVG Export Plug-In . SVG Version: 6.00 Build 0)  -->
<!DOCTYPE svg PUBLIC "-//W3C//DTD SVG 1.1//EN" "http://www.w3.org/Graphics/SVG/1.1/DTD/svg11.dtd">
<svg version="1.1" id="Layer_2" xmlns="http://www.w3.org/2000/svg" xmlns:xlink="http://www.w3.org/1999/xlink" x="0px" y="0px"
	 width="512px" height="512px" viewBox="0 0 512 512" enable-background="new 0 0 512 512" xml:space="preserve">
<g>
	<g id="Layer_1">
		<text transform="matrix(1 0 0 1 134.8794 346.75)" fill="#777777" font-family="'PTSans-Regular'" font-size="300">in</text>
	</g>
	<g>
		<path fill="#777777" d="M257.127,30.996c30.389,0,59.853,5.945,87.573,17.669c26.79,11.331,50.856,27.559,71.53,48.232
			c20.673,20.673,36.901,44.739,48.232,71.529c11.725,27.72,17.669,57.184,17.669,87.572s-5.944,59.853-17.669,87.573
			c-11.331,26.79-27.56,50.856-48.232,71.53c-20.674,20.673-44.74,36.901-71.53,48.232c-27.721,11.725-57.185,17.669-87.573,17.669
			s-59.852-5.944-87.572-17.669c-26.79-11.331-50.855-27.56-71.529-48.232c-20.674-20.674-36.901-44.74-48.232-71.53
			c-11.725-27.721-17.669-57.185-17.669-87.573s5.945-59.852,17.669-87.572c11.331-26.79,27.559-50.855,48.232-71.529
			c20.674-20.674,44.74-36.901,71.529-48.232C197.275,36.941,226.738,30.996,257.127,30.996 M257.127,1.128
			c-140.762,0-254.871,114.11-254.871,254.871c0,140.764,114.109,254.873,254.871,254.873C397.891,510.872,512,396.763,512,255.999
			C512,115.238,397.891,1.128,257.127,1.128L257.127,1.128z"/>
	</g>
</g>
</svg>
