<?xml version="1.0" encoding="utf-8"?>
<!-- Generator: Adobe Illustrator 16.0.0, SVG Export Plug-In . SVG Version: 6.00 Build 0)  -->
<!DOCTYPE svg PUBLIC "-//W3C//DTD SVG 1.1//EN" "http://www.w3.org/Graphics/SVG/1.1/DTD/svg11.dtd">
<svg version="1.1" id="Layer_1" xmlns="http://www.w3.org/2000/svg" xmlns:xlink="http://www.w3.org/1999/xlink" x="0px" y="0px"
	 width="512px" height="512px" viewBox="0 0 512 512" enable-background="new 0 0 512 512" xml:space="preserve">
<path id="email-10-icon" fill="#777777" d="M203.582,246.5l-76.399-58.688v135.086L203.582,246.5z M387.625,160.533H128.081
	l129.669,99.606L387.625,160.533z M294.093,260.221l-36.354,27.882l-36.415-27.971l-93.823,93.823h260.33L294.093,260.221z
	 M311.849,246.603l76.454,76.455V187.966L311.849,246.603z"/>
<g>
	<path fill="#777777" d="M256,36.128c29.697,0,58.489,5.809,85.573,17.264c26.179,11.073,49.696,26.931,69.9,47.135
		c20.203,20.204,36.062,43.722,47.134,69.899c11.456,27.084,17.265,55.875,17.265,85.574s-5.809,58.489-17.265,85.574
		c-11.072,26.178-26.931,49.695-47.134,69.899c-20.204,20.203-43.722,36.062-69.9,47.134
		c-27.084,11.456-55.876,17.265-85.573,17.265c-29.698,0-58.489-5.809-85.574-17.265c-26.178-11.072-49.695-26.931-69.899-47.134
		c-20.204-20.204-36.062-43.722-47.135-69.9C41.937,314.489,36.128,285.698,36.128,256s5.809-58.489,17.264-85.574
		c11.073-26.178,26.931-49.695,47.135-69.899s43.722-36.062,69.899-47.135C197.511,41.937,226.302,36.128,256,36.128 M256,1.128
		C115.238,1.128,1.128,115.238,1.128,256c0,140.763,114.11,254.872,254.872,254.872c140.763,0,254.872-114.109,254.872-254.872
		C510.872,115.238,396.763,1.128,256,1.128L256,1.128z"/>
</g>
</svg>
