<?xml version="1.0" encoding="utf-8"?>
<!-- Generator: Adobe Illustrator 16.0.0, SVG Export Plug-In . SVG Version: 6.00 Build 0)  -->
<!DOCTYPE svg PUBLIC "-//W3C//DTD SVG 1.1//EN" "http://www.w3.org/Graphics/SVG/1.1/DTD/svg11.dtd">
<svg version="1.1" id="Layer_2" xmlns="http://www.w3.org/2000/svg" xmlns:xlink="http://www.w3.org/1999/xlink" x="0px" y="0px"
	 width="512px" height="512px" viewBox="0 0 512 512" enable-background="new 0 0 512 512" xml:space="preserve">
<g>
	<g>
		<path fill="#777777" d="M256.21,36.692c29.698,0,58.489,5.809,85.574,17.264c26.179,11.072,49.696,26.931,69.9,47.135
			c20.203,20.204,36.062,43.721,47.134,69.899c11.456,27.084,17.265,55.875,17.265,85.573s-5.809,58.49-17.265,85.574
			c-11.072,26.179-26.931,49.696-47.134,69.899c-20.204,20.204-43.722,36.062-69.9,47.135
			c-27.084,11.456-55.876,17.265-85.574,17.265c-29.698,0-58.489-5.809-85.573-17.265c-26.178-11.072-49.695-26.931-69.899-47.134
			c-20.204-20.204-36.062-43.722-47.135-69.9c-11.456-27.084-17.264-55.876-17.264-85.574s5.809-58.489,17.264-85.573
			c11.072-26.178,26.931-49.695,47.135-69.899c20.204-20.204,43.721-36.062,69.899-47.135
			C197.721,42.5,226.512,36.692,256.21,36.692 M256.21,1.692c-140.762,0-254.871,114.11-254.871,254.872
			c0,140.764,114.109,254.873,254.871,254.873c140.764,0,254.873-114.109,254.873-254.873
			C511.083,115.802,396.974,1.692,256.21,1.692L256.21,1.692z"/>
	</g>
</g>
<text transform="matrix(1 0 0 1 137.6313 344.7012)" fill="#777777" stroke="#777777" stroke-width="3" stroke-miterlimit="10" font-family="'TwCenMT-Bold'" font-size="300">in</text>
</svg>
