<?xml version="1.0" encoding="utf-8"?>
<!-- Generator: Adobe Illustrator 16.0.0, SVG Export Plug-In . SVG Version: 6.00 Build 0)  -->
<!DOCTYPE svg PUBLIC "-//W3C//DTD SVG 1.1//EN" "http://www.w3.org/Graphics/SVG/1.1/DTD/svg11.dtd">
<svg version="1.1" id="Layer_2" xmlns="http://www.w3.org/2000/svg" xmlns:xlink="http://www.w3.org/1999/xlink" x="0px" y="0px"
	 width="512px" height="512px" viewBox="0 0 512 512" enable-background="new 0 0 512 512" xml:space="preserve">
<path fill="#777777" d="M255.999,36.128c29.699,0,58.49,5.809,85.574,17.264c26.18,11.072,49.696,26.931,69.897,47.135
	c20.203,20.204,36.062,43.721,47.138,69.899c11.454,27.084,17.264,55.875,17.264,85.571c0,29.698-5.809,58.489-17.264,85.573
	c-11.072,26.181-26.935,49.697-47.138,69.9c-20.201,20.203-43.721,36.062-69.897,47.136c-27.084,11.454-55.875,17.264-85.574,17.264
	c-29.697,0-58.488-5.81-85.572-17.264c-26.178-11.072-49.695-26.933-69.899-47.136c-20.204-20.203-36.062-43.723-47.135-69.9
	c-11.456-27.084-17.264-55.875-17.264-85.573c0-29.696,5.809-58.487,17.264-85.571c11.072-26.178,26.931-49.695,47.135-69.899
	c20.204-20.204,43.721-36.062,69.899-47.135C197.511,41.937,226.302,36.128,255.999,36.128 M255.999,1.128
	c-140.761,0-254.871,114.11-254.871,254.871c0,140.766,114.109,254.873,254.871,254.873c140.764,0,254.873-114.107,254.873-254.873
	C510.872,115.238,396.763,1.128,255.999,1.128L255.999,1.128z"/>
<g>
	<circle fill="#777777" cx="181.764" cy="164.084" r="25.102"/>
	<rect x="160.708" y="217.219" fill="#777777" width="42.112" height="137.798"/>
</g>
<text transform="matrix(1 0 0 1 230.8667 355.2197)" fill="#777777" font-family="'HelveticaNeue-Bold', 'Tahoma'" font-size="266.7541">n</text>
</svg>
