<?xml version="1.0" encoding="utf-8"?>
<!-- Generator: Adobe Illustrator 16.0.0, SVG Export Plug-In . SVG Version: 6.00 Build 0)  -->
<!DOCTYPE svg PUBLIC "-//W3C//DTD SVG 1.1//EN" "http://www.w3.org/Graphics/SVG/1.1/DTD/svg11.dtd">
<svg version="1.1" id="Layer_1" xmlns="http://www.w3.org/2000/svg" xmlns:xlink="http://www.w3.org/1999/xlink" x="0px" y="0px"
	 width="512px" height="512px" viewBox="0 0 512 512" enable-background="new 0 0 512 512" xml:space="preserve">
<path id="twitter-5-icon" fill="#777777" d="M395.467,190.098c-9.519,4.221-19.745,7.075-30.48,8.356
	c10.955-6.568,19.372-16.968,23.334-29.362c-10.256,6.082-21.612,10.499-33.703,12.879c-9.68-10.314-23.476-16.759-38.737-16.759
	c-34.258,0-59.443,31.968-51.703,65.166c-44.106-2.213-83.214-23.342-109.389-55.451c-13.903,23.849-7.213,55.059,16.425,70.856
	c-8.7-0.275-16.887-2.664-24.04-6.64c-0.576,24.589,17.047,47.583,42.566,52.71c-7.469,2.033-15.65,2.498-23.966,0.908
	c6.753,21.088,26.355,36.43,49.578,36.857c-22.312,17.486-50.416,25.295-78.571,21.977c23.484,15.059,51.382,23.844,81.354,23.844
	c98.534,0,154.202-83.227,150.849-157.869C379.354,210.089,388.351,200.741,395.467,190.098z"/>
<g>
	<path fill="#777777" d="M256,36.128c29.698,0,58.489,5.809,85.573,17.264c26.179,11.073,49.696,26.931,69.9,47.135
		c20.203,20.204,36.062,43.722,47.134,69.899c11.456,27.084,17.265,55.875,17.265,85.574s-5.809,58.489-17.265,85.574
		c-11.072,26.178-26.931,49.695-47.134,69.899c-20.204,20.203-43.722,36.062-69.899,47.134
		c-27.085,11.456-55.876,17.265-85.574,17.265s-58.489-5.809-85.574-17.265c-26.178-11.072-49.695-26.931-69.899-47.134
		c-20.204-20.204-36.062-43.722-47.135-69.9C41.937,314.489,36.128,285.698,36.128,256s5.809-58.489,17.264-85.574
		c11.073-26.178,26.931-49.695,47.135-69.899s43.722-36.062,69.899-47.135C197.511,41.937,226.302,36.128,256,36.128 M256,1.128
		C115.238,1.128,1.128,115.238,1.128,256c0,140.763,114.11,254.872,254.872,254.872c140.763,0,254.872-114.109,254.872-254.872
		C510.872,115.238,396.763,1.128,256,1.128L256,1.128z"/>
</g>
</svg>
