<?xml version="1.0" encoding="utf-8"?>
<!-- Generator: Adobe Illustrator 16.0.0, SVG Export Plug-In . SVG Version: 6.00 Build 0)  -->
<!DOCTYPE svg PUBLIC "-//W3C//DTD SVG 1.1//EN" "http://www.w3.org/Graphics/SVG/1.1/DTD/svg11.dtd">
<svg version="1.1" id="Layer_1" xmlns="http://www.w3.org/2000/svg" xmlns:xlink="http://www.w3.org/1999/xlink" x="0px" y="0px"
	 width="512px" height="512px" viewBox="0 0 512 512" enable-background="new 0 0 512 512" xml:space="preserve">
<path id="linkedin-circle-outline-icon" fill="#969696" d="M256.5,49.612c54.994,0,106.697,21.416,145.585,60.303
	c38.89,38.888,60.304,90.591,60.304,145.585c0,54.995-21.415,106.696-60.304,145.585c-38.888,38.888-90.591,60.304-145.585,60.304
	c-54.995,0-106.697-21.416-145.585-60.304c-38.888-38.889-60.303-90.59-60.303-145.585c0-54.995,21.416-106.697,60.303-145.585
	C149.803,71.027,201.505,49.612,256.5,49.612 M256.5,0C115.391,0,1,114.391,1,255.5S115.391,511,256.5,511
	C397.608,511,512,396.609,512,255.5S397.608,0,256.5,0L256.5,0z M203.614,155.985c0,15.698-12.625,28.425-28.196,28.425
	c-15.573,0-28.196-12.727-28.196-28.425c0-15.7,12.625-28.425,28.196-28.425C190.991,127.561,203.614,140.286,203.614,155.985z
	 M199.487,204.585h-47.681v154.051h47.681V204.585z M275.708,204.585h-45.733v154.051h45.733c0,0,0-57.14,0-80.864
	c0-21.665,9.971-34.559,29.058-34.559c17.537,0,25.961,12.381,25.961,34.559c0,22.178,0,80.864,0,80.864h47.454
	c0,0,0-56.279,0-97.546c0-41.26-23.385-61.206-56.049-61.206c-32.666,0-46.424,25.447-46.424,25.447V204.585L275.708,204.585z"/>
</svg>
