<?xml version="1.0" encoding="utf-8"?>
<!-- Generator: Adobe Illustrator 16.0.0, SVG Export Plug-In . SVG Version: 6.00 Build 0)  -->
<!DOCTYPE svg PUBLIC "-//W3C//DTD SVG 1.1//EN" "http://www.w3.org/Graphics/SVG/1.1/DTD/svg11.dtd">
<svg version="1.1" id="Layer_2" xmlns="http://www.w3.org/2000/svg" xmlns:xlink="http://www.w3.org/1999/xlink" x="0px" y="0px"
	 width="512px" height="512px" viewBox="0 0 512 512" enable-background="new 0 0 512 512" xml:space="preserve">
<g>
	<path fill="#777777" d="M255.864,29.868c30.389,0,59.853,5.945,87.574,17.669c26.789,11.331,50.855,27.559,71.529,48.232
		c20.673,20.674,36.901,44.739,48.232,71.529c11.725,27.72,17.669,57.184,17.669,87.573s-5.944,59.853-17.669,87.573
		c-11.331,26.79-27.56,50.855-48.232,71.529c-20.674,20.673-44.74,36.901-71.529,48.232c-27.721,11.725-57.185,17.669-87.574,17.669
		c-30.389,0-59.852-5.944-87.572-17.669c-26.79-11.331-50.856-27.56-71.529-48.232c-20.674-20.674-36.901-44.74-48.232-71.529
		c-11.725-27.721-17.669-57.185-17.669-87.573s5.945-59.852,17.669-87.573c11.331-26.79,27.559-50.855,48.232-71.529
		c20.673-20.674,44.739-36.901,71.529-48.232C196.012,35.813,225.476,29.868,255.864,29.868 M255.864,0
		C115.102,0,0.992,114.11,0.992,254.872c0,140.763,114.11,254.872,254.872,254.872c140.763,0,254.873-114.109,254.873-254.872
		C510.736,114.11,396.627,0,255.864,0L255.864,0z"/>
</g>
<g id="Layer_1">
	<path id="github-2-circle-outline-icon" fill="#777777" d="M402.969,252.199l0.262-2.711c-16.254-1.577-32.42-1.718-48.123-0.519
		c2.523-8.056,3.854-17.155,3.758-27.501c-0.207-21.982-7.537-39.102-19.057-53.31c2.215-13.384,0.547-26.765-3.627-40.152
		c-16.459,1.347-31.273,6.739-44.465,16.104c-24.65-5-49.298-5.319-73.95,0c-15.385-10.385-30.493-15.476-45.368-16.104
		c-4.41,14.741-5.09,29.271-1.361,43.557c-12.978,13.771-17.937,30.486-17.693,48.995c0.139,10.596,1.771,20.025,4.784,28.361
		c-15.474-1.135-31.379-0.981-47.374,0.568l0.262,2.711c16.289-1.58,32.484-1.712,48.216-0.48c0.577,1.4,1.159,2.795,1.821,4.128
		c-17.044-0.448-32.384,1.031-46.75,4.564l0.648,2.643c14.582-3.583,30.2-5.026,47.639-4.44
		c11.533,20.49,33.735,32.53,66.066,36.352c-7.511,6.1-11.55,13.297-12.589,21.439c0,0-3.399,0-17.123,0
		c-22.997,0-29.267-29.322-53.085-26.43c23.107,11.46,18.492,48.09,55.469,48.09c12.426,0,15.069,0,15.536,0v33.575
		c0.164,5.424-2.198,9.053-6.013,11.568c13.243,1.337,23.194-5.274,23.194-13.385c0-8.109,0-40.426,0-44.381
		c0-3.954,4.14-4.261,4.14-4.261v51.817c0.175,5.157-2.331,8.09-4.991,10.888c11.666,0.467,22.64-1.863,23.136-11.793
		c0,0,0-47.099,0-49.593c0-2.493,4.085-2.555,4.085,0s0,47.267,0,47.267c0.121,8.376,7.355,15.166,22.684,14.119
		c-4.102-3.299-5.359-6.637-5.359-11.464s0-51.241,0-51.241s4.225-0.215,4.225,4.261s0,35.729,0,43.219
		c0,9.618,11.547,13.587,24.723,13.215c-4.314-3.235-7.238-7.093-7.258-12.251v-51.974c-0.445-7.641-3.551-14.843-9.641-21.553
		c29.555-4.537,50.855-16.334,61.463-37.479c17.494-0.601,33.16,0.839,47.779,4.434l0.648-2.643
		c-14.477-3.558-29.943-5.038-47.146-4.553c0.594-1.344,1.186-2.69,1.693-4.107C370.123,250.475,386.498,250.599,402.969,252.199z
		 M156.188,294.352c-0.727,0-1.315-0.418-1.315-0.932c0-0.516,0.589-0.936,1.315-0.936c0.728,0,1.316,0.42,1.316,0.936
		C157.504,293.934,156.915,294.352,156.188,294.352z M160.33,297.177c-0.808,0-1.464-0.464-1.464-1.035
		c0-0.572,0.656-1.038,1.464-1.038c0.805,0,1.461,0.466,1.461,1.038C161.792,296.713,161.135,297.177,160.33,297.177z
		 M164.53,300.847c-0.948,0-1.714-0.544-1.714-1.214c0-0.672,0.766-1.217,1.714-1.217c0.946,0,1.714,0.545,1.714,1.217
		C166.245,300.303,165.477,300.847,164.53,300.847z M168.612,305.253c-1.108,0-2.006-0.638-2.006-1.424
		c0-0.783,0.898-1.421,2.006-1.421c1.106,0,2.003,0.638,2.003,1.421C170.615,304.615,169.718,305.253,168.612,305.253z
		 M173.108,310.233c-1.23,0-2.229-0.708-2.229-1.581s0.999-1.58,2.229-1.58s2.228,0.707,2.228,1.58S174.338,310.233,173.108,310.233
		z M178.314,315.287c-1.367,0-2.478-0.785-2.478-1.755s1.11-1.757,2.478-1.757c1.366,0,2.476,0.787,2.476,1.757
		C180.789,314.502,179.68,315.287,178.314,315.287z M185.354,320.099c-1.521,0-2.752-0.874-2.752-1.953
		c0-1.077,1.231-1.953,2.752-1.953c1.519,0,2.75,0.876,2.75,1.953C188.104,319.225,186.872,320.099,185.354,320.099z
		 M194.078,322.671c-1.518,0-2.75-0.875-2.75-1.951c0-1.078,1.232-1.953,2.75-1.953c1.521,0,2.751,0.875,2.751,1.953
		C196.829,321.796,195.599,322.671,194.078,322.671z M203.278,322.968c-1.52,0-2.75-0.874-2.75-1.95c0-1.079,1.23-1.954,2.75-1.954
		c1.519,0,2.751,0.877,2.751,1.954C206.028,322.094,204.795,322.968,203.278,322.968z M212.357,323.145
		c-1.518,0-2.75-0.873-2.75-1.952c0-1.076,1.232-1.953,2.75-1.953c1.521,0,2.752,0.877,2.752,1.953
		C215.11,322.271,213.878,323.145,212.357,323.145z"/>
</g>
</svg>
