<?xml version="1.0" encoding="utf-8"?>
<!-- Generator: Adobe Illustrator 16.0.0, SVG Export Plug-In . SVG Version: 6.00 Build 0)  -->
<!DOCTYPE svg PUBLIC "-//W3C//DTD SVG 1.1//EN" "http://www.w3.org/Graphics/SVG/1.1/DTD/svg11.dtd">
<svg version="1.1" id="Layer_2" xmlns="http://www.w3.org/2000/svg" xmlns:xlink="http://www.w3.org/1999/xlink" x="0px" y="0px"
	 width="512px" height="512px" viewBox="0 0 512 512" enable-background="new 0 0 512 512" xml:space="preserve">
<g>
	<path fill="#777777" d="M256.992,30c30.523,0,60.118,5.971,87.96,17.748c26.909,11.381,51.081,27.681,71.847,48.446
		c20.765,20.765,37.064,44.938,48.445,71.846c11.776,27.843,17.748,57.438,17.748,87.96c0,30.523-5.972,60.117-17.748,87.961
		c-11.381,26.908-27.681,51.08-48.445,71.846c-20.766,20.765-44.938,37.064-71.847,48.445C317.109,476.028,287.516,482,256.992,482
		c-30.523,0-60.117-5.972-87.96-17.748c-26.908-11.381-51.081-27.681-71.846-48.445c-20.765-20.766-37.065-44.938-48.446-71.846
		C36.963,316.117,30.992,286.523,30.992,256c0-30.523,5.971-60.117,17.748-87.96c11.381-26.908,27.681-51.081,48.446-71.846
		c20.765-20.765,44.938-37.065,71.846-48.446C196.875,35.971,226.469,30,256.992,30 M256.992,0c-141.385,0-256,114.615-256,256
		c0,141.386,114.615,256,256,256c141.386,0,256-114.614,256-256C512.992,114.615,398.378,0,256.992,0L256.992,0z"/>
</g>
<g id="Layer_1">
	<path id="github-2-circle-outline-icon" fill="#777777" d="M390.242,260.53l0.238-2.475c-14.836-1.439-29.594-1.568-43.928-0.474
		c2.305-7.354,3.519-15.659,3.431-25.104c-0.188-20.065-6.879-35.692-17.395-48.662c2.021-12.217,0.498-24.432-3.312-36.651
		c-15.024,1.229-28.547,6.151-40.588,14.7c-22.502-4.564-45-4.855-67.502,0c-14.044-9.479-27.835-14.127-41.413-14.7
		c-4.025,13.456-4.646,26.719-1.242,39.76c-11.846,12.57-16.373,27.828-16.151,44.724c0.127,9.672,1.617,18.279,4.367,25.889
		c-14.125-1.036-28.643-0.896-43.244,0.519l0.239,2.475c14.869-1.442,29.652-1.562,44.012-0.438
		c0.527,1.278,1.058,2.552,1.663,3.769c-15.559-0.409-29.561,0.941-42.674,4.166l0.592,2.412c13.31-3.271,27.566-4.588,43.485-4.053
		c10.527,18.703,30.794,29.693,60.306,33.182c-6.856,5.568-10.543,12.138-11.492,19.57c0,0-3.103,0-15.63,0
		c-20.992,0-26.715-26.766-48.457-24.125c21.093,10.461,16.88,43.896,50.633,43.896c11.343,0,13.755,0,14.181,0v30.648
		c0.15,4.951-2.006,8.264-5.488,10.56c12.088,1.221,21.172-4.814,21.172-12.218c0-7.402,0-36.901,0-40.512
		c0-3.609,3.779-3.889,3.779-3.889v47.3c0.16,4.707-2.128,7.384-4.556,9.938c10.649,0.426,20.667-1.701,21.12-10.766
		c0,0,0-42.992,0-45.269s3.729-2.332,3.729,0s0,43.146,0,43.146c0.11,7.646,6.714,13.844,20.705,12.889
		c-3.743-3.012-4.892-6.059-4.892-10.465s0-46.773,0-46.773s3.855-0.196,3.855,3.889c0,4.086,0,32.614,0,39.451
		c0,8.779,10.54,12.402,22.568,12.062c-3.939-2.953-6.607-6.475-6.625-11.183v-47.442c-0.406-6.975-3.241-13.549-8.801-19.674
		c26.978-4.142,46.422-14.91,56.104-34.211c15.971-0.549,30.271,0.766,43.615,4.047l0.592-2.412
		c-13.215-3.248-27.333-4.599-43.037-4.156c0.543-1.227,1.082-2.456,1.547-3.749C360.26,258.956,375.208,259.069,390.242,260.53z
		 M164.976,299.008c-0.663,0-1.201-0.382-1.201-0.851c0-0.471,0.538-0.854,1.201-0.854c0.664,0,1.201,0.383,1.201,0.854
		C166.178,298.626,165.64,299.008,164.976,299.008z M168.757,301.587c-0.737,0-1.336-0.424-1.336-0.945
		c0-0.522,0.599-0.947,1.336-0.947c0.735,0,1.334,0.425,1.334,0.947C170.091,301.163,169.492,301.587,168.757,301.587z
		 M172.591,304.937c-0.865,0-1.565-0.496-1.565-1.108c0-0.613,0.7-1.11,1.565-1.11c0.864,0,1.565,0.497,1.565,1.11
		C174.156,304.44,173.455,304.937,172.591,304.937z M176.317,308.959c-1.011,0-1.831-0.582-1.831-1.3
		c0-0.715,0.82-1.297,1.831-1.297c1.01,0,1.829,0.582,1.829,1.297C178.146,308.377,177.327,308.959,176.317,308.959z
		 M180.421,313.505c-1.123,0-2.034-0.646-2.034-1.443s0.911-1.442,2.034-1.442c1.123,0,2.034,0.646,2.034,1.442
		S181.544,313.505,180.421,313.505z M185.173,318.118c-1.248,0-2.261-0.717-2.261-1.602c0-0.886,1.013-1.604,2.261-1.604
		c1.247,0,2.26,0.719,2.26,1.604C187.432,317.401,186.42,318.118,185.173,318.118z M191.599,322.51
		c-1.388,0-2.512-0.798-2.512-1.782c0-0.983,1.124-1.783,2.512-1.783c1.386,0,2.51,0.8,2.51,1.783
		C194.109,321.712,192.985,322.51,191.599,322.51z M199.563,324.858c-1.386,0-2.511-0.799-2.511-1.781
		c0-0.984,1.125-1.783,2.511-1.783c1.388,0,2.511,0.799,2.511,1.783C202.074,324.06,200.951,324.858,199.563,324.858z
		 M207.961,325.129c-1.388,0-2.511-0.798-2.511-1.78c0-0.984,1.123-1.783,2.511-1.783c1.386,0,2.511,0.8,2.511,1.783
		C210.471,324.331,209.346,325.129,207.961,325.129z M216.249,325.29c-1.386,0-2.511-0.797-2.511-1.781
		c0-0.982,1.125-1.783,2.511-1.783c1.388,0,2.512,0.801,2.512,1.783C218.761,324.493,217.637,325.29,216.249,325.29z"/>
</g>
</svg>
