<?xml version="1.0" encoding="utf-8"?>
<!-- Generator: Adobe Illustrator 16.0.0, SVG Export Plug-In . SVG Version: 6.00 Build 0)  -->
<!DOCTYPE svg PUBLIC "-//W3C//DTD SVG 1.1//EN" "http://www.w3.org/Graphics/SVG/1.1/DTD/svg11.dtd">
<svg version="1.1" id="Layer_1" xmlns="http://www.w3.org/2000/svg" xmlns:xlink="http://www.w3.org/1999/xlink" x="0px" y="0px"
	 width="512px" height="512px" viewBox="0 0 512 512" enable-background="new 0 0 512 512" xml:space="preserve">
<path id="linkedin-circle-outline-icon" d="M255.75,51.175c54.51,0,105.758,21.227,144.303,59.772
	c38.547,38.545,59.772,89.793,59.772,144.303c0,54.511-21.227,105.757-59.772,144.303c-38.545,38.546-89.793,59.772-144.303,59.772
	c-54.51,0-105.758-21.228-144.303-59.772c-38.546-38.546-59.772-89.792-59.772-144.303c0-54.51,21.227-105.758,59.772-144.303
	C149.992,72.402,201.24,51.175,255.75,51.175 M255.75,2C115.883,2,2.5,115.383,2.5,255.25c0,139.867,113.383,253.25,253.25,253.25
	C395.616,508.5,509,395.117,509,255.25C509,115.383,395.616,2,255.75,2L255.75,2z M203.33,156.612
	c0,15.56-12.514,28.175-27.948,28.175c-15.436,0-27.947-12.615-27.947-28.175c0-15.562,12.513-28.175,27.947-28.175
	C190.817,128.437,203.33,141.05,203.33,156.612z M199.239,204.783h-47.261v152.694h47.261V204.783z M274.789,204.783h-45.331
	v152.694h45.331c0,0,0-56.637,0-80.152c0-21.474,9.883-34.254,28.802-34.254c17.383,0,25.732,12.271,25.732,34.254
	c0,21.982,0,80.152,0,80.152h47.036c0,0,0-55.784,0-96.687c0-40.897-23.179-60.667-55.556-60.667
	c-32.378,0-46.015,25.223-46.015,25.223V204.783L274.789,204.783z"/>
</svg>
