<?xml version="1.0" encoding="utf-8"?>
<!-- Generator: Adobe Illustrator 16.0.0, SVG Export Plug-In . SVG Version: 6.00 Build 0)  -->
<!DOCTYPE svg PUBLIC "-//W3C//DTD SVG 1.1//EN" "http://www.w3.org/Graphics/SVG/1.1/DTD/svg11.dtd">
<svg version="1.1" id="Layer_1" xmlns="http://www.w3.org/2000/svg" xmlns:xlink="http://www.w3.org/1999/xlink" x="0px" y="0px"
	 width="512px" height="512px" viewBox="0 0 512 512" enable-background="new 0 0 512 512" xml:space="preserve">
<path id="github-2-circle-outline-icon" fill="#777777" d="M256.75,51.869c54.725,0,106.177,21.312,144.873,60.008
	c38.697,38.698,60.008,90.147,60.008,144.873c0,54.725-21.311,106.176-60.008,144.872c-38.696,38.696-90.148,60.009-144.873,60.009
	c-54.726,0-106.175-21.312-144.873-60.009C73.18,362.926,51.869,311.475,51.869,256.75c0-54.726,21.311-106.175,60.008-144.873
	C150.575,73.18,202.024,51.869,256.75,51.869 M256.75,2.5C116.331,2.5,2.5,116.331,2.5,256.75S116.331,511,256.75,511
	S511,397.169,511,256.75S397.169,2.5,256.75,2.5L256.75,2.5z M423.679,269.744l0.294-3.053c-18.311-1.777-36.525-1.936-54.216-0.584
	c2.844-9.077,4.342-19.328,4.234-30.985c-0.233-24.765-8.491-44.051-21.469-60.059c2.492-15.077,0.614-30.154-4.088-45.236
	c-18.543,1.518-35.234,7.591-50.094,18.142c-27.772-5.633-55.541-5.991-83.314,0c-17.334-11.699-34.355-17.436-51.112-18.142
	c-4.968,16.607-5.735,32.977-1.534,49.072c-14.62,15.515-20.208,34.346-19.934,55.2c0.157,11.937,1.995,22.561,5.39,31.951
	c-17.434-1.279-35.352-1.105-53.372,0.641l0.294,3.053c18.352-1.779,36.597-1.927,54.321-0.54c0.65,1.578,1.305,3.149,2.052,4.651
	c-19.203-0.505-36.485,1.162-52.669,5.143l0.73,2.977c16.427-4.036,34.023-5.663,53.67-5.003
	c12.993,23.085,38.007,36.648,74.431,40.954c-8.461,6.872-13.012,14.98-14.183,24.155c0,0-3.83,0-19.291,0
	c-25.909,0-32.972-33.035-59.807-29.776c26.034,12.911,20.833,54.178,62.493,54.178c14,0,16.976,0,17.502,0v37.827
	c0.185,6.111-2.477,10.199-6.773,13.033c14.919,1.506,26.131-5.942,26.131-15.08c0-9.136,0-45.544,0-50c0-4.455,4.665-4.8,4.665-4.8
	v58.378c0.197,5.811-2.627,9.113-5.624,12.267c13.143,0.526,25.508-2.1,26.066-13.287c0,0,0-53.062,0-55.871
	c0-2.811,4.603-2.878,4.603,0s0,53.252,0,53.252c0.136,9.435,8.287,17.086,25.555,15.906c-4.618-3.717-6.037-7.478-6.037-12.915
	c0-5.438,0-57.729,0-57.729s4.759-0.243,4.759,4.8c0,5.042,0,40.253,0,48.691c0,10.835,13.009,15.307,27.854,14.888
	c-4.862-3.646-8.154-7.99-8.175-13.802v-58.555c-0.502-8.607-4.002-16.722-10.863-24.281c33.296-5.112,57.296-18.403,69.245-42.225
	c19.71-0.678,37.36,0.945,53.83,4.995l0.73-2.977c-16.309-4.01-33.734-5.677-53.117-5.131c0.669-1.514,1.336-3.03,1.908-4.627
	C386.673,267.803,405.123,267.942,423.679,269.744z M145.65,317.235c-0.818,0-1.482-0.472-1.482-1.05
	c0-0.581,0.664-1.053,1.482-1.053c0.82,0,1.482,0.472,1.482,1.053C147.134,316.764,146.47,317.235,145.65,317.235z M150.317,320.418
	c-0.91,0-1.648-0.523-1.648-1.167c0-0.645,0.738-1.168,1.648-1.168c0.907,0,1.646,0.523,1.646,1.168
	C151.963,319.895,151.224,320.418,150.317,320.418z M155.049,324.553c-1.068,0-1.932-0.612-1.932-1.367
	c0-0.757,0.864-1.371,1.932-1.371c1.065,0,1.931,0.614,1.931,1.371C156.98,323.94,156.115,324.553,155.049,324.553z
	 M159.648,329.518c-1.248,0-2.26-0.719-2.26-1.604c0-0.882,1.012-1.601,2.26-1.601c1.246,0,2.256,0.719,2.256,1.601
	C161.904,328.799,160.894,329.518,159.648,329.518z M164.713,335.129c-1.386,0-2.51-0.8-2.51-1.783c0-0.982,1.124-1.779,2.51-1.779
	s2.51,0.797,2.51,1.779C167.223,334.329,166.099,335.129,164.713,335.129z M170.579,340.821c-1.542,0-2.792-0.884-2.792-1.977
	c0-1.094,1.25-1.979,2.792-1.979c1.538,0,2.788,0.886,2.788,1.979C173.365,339.938,172.117,340.821,170.579,340.821z
	 M178.509,346.241c-1.714,0-3.1-0.985-3.1-2.198c0-1.215,1.386-2.201,3.1-2.201c1.711,0,3.098,0.986,3.098,2.201
	C181.607,345.256,180.22,346.241,178.509,346.241z M188.338,349.142c-1.71,0-3.099-0.987-3.099-2.2c0-1.215,1.389-2.2,3.099-2.2
	c1.713,0,3.1,0.985,3.1,2.2C191.438,348.154,190.051,349.142,188.338,349.142z M198.703,349.474c-1.712,0-3.099-0.984-3.099-2.195
	c0-1.215,1.386-2.201,3.099-2.201c1.711,0,3.1,0.987,3.1,2.201C201.801,348.489,200.412,349.474,198.703,349.474z M208.933,349.674
	c-1.711,0-3.099-0.983-3.099-2.198c0-1.213,1.388-2.201,3.099-2.201c1.713,0,3.1,0.988,3.1,2.201
	C212.033,348.69,210.646,349.674,208.933,349.674z"/>
</svg>
