<?xml version="1.0" encoding="utf-8"?>
<!-- Generator: Adobe Illustrator 16.0.0, SVG Export Plug-In . SVG Version: 6.00 Build 0)  -->
<!DOCTYPE svg PUBLIC "-//W3C//DTD SVG 1.1//EN" "http://www.w3.org/Graphics/SVG/1.1/DTD/svg11.dtd">
<svg version="1.1" id="Layer_1" xmlns="http://www.w3.org/2000/svg" xmlns:xlink="http://www.w3.org/1999/xlink" x="0px" y="0px"
	 width="512px" height="512px" viewBox="0 0 512 512" enable-background="new 0 0 512 512" xml:space="preserve">
<path id="info-2-icon" fill="#969696" d="M256.749,50.37c113.226,0,204.881,91.629,204.881,204.877
	c0,113.229-91.633,204.88-204.881,204.88c-113.229,0-204.879-91.631-204.879-204.88C51.87,142.02,143.502,50.37,256.749,50.37
	 M256.749,1C116.332,1,2.501,114.83,2.501,255.247c0,140.418,113.831,254.25,254.248,254.25S511,395.665,511,255.247
	C511,114.83,397.167,1,256.749,1L256.749,1z M293.558,392.945h-71.148V223.899h71.148V392.945z M257.986,188.932
	c-21.627,0-39.162-17.533-39.162-39.162c0-21.626,17.534-39.161,39.162-39.161c21.626,0,39.158,17.533,39.158,39.161
	C297.145,171.398,279.612,188.932,257.986,188.932z"/>
</svg>
