<?xml version="1.0" encoding="utf-8"?>
<!-- Generator: Adobe Illustrator 16.0.0, SVG Export Plug-In . SVG Version: 6.00 Build 0)  -->
<!DOCTYPE svg PUBLIC "-//W3C//DTD SVG 1.1//EN" "http://www.w3.org/Graphics/SVG/1.1/DTD/svg11.dtd">
<svg version="1.1" id="Layer_1" xmlns="http://www.w3.org/2000/svg" xmlns:xlink="http://www.w3.org/1999/xlink" x="0px" y="0px"
	 width="512px" height="512px" viewBox="0 0 512 512" enable-background="new 0 0 512 512" xml:space="preserve">
<path id="twitter-5-icon" fill="#777777" d="M256.25,51.869c113.23,0,204.881,91.635,204.881,204.881
	c0,113.229-91.634,204.881-204.881,204.881c-113.231,0-204.881-91.634-204.881-204.881C51.369,143.521,143.003,51.869,256.25,51.869
	 M256.25,2.5C115.832,2.5,2,116.332,2,256.75C2,397.17,115.832,511,256.25,511c140.42,0,254.25-113.83,254.25-254.25
	C510.5,116.332,396.67,2.5,256.25,2.5L256.25,2.5z M395.467,190.098c-9.519,4.221-19.745,7.075-30.481,8.356
	c10.955-6.568,19.372-16.968,23.334-29.362c-10.256,6.082-21.612,10.499-33.703,12.879c-9.68-10.314-23.475-16.759-38.737-16.759
	c-34.258,0-59.443,31.968-51.703,65.166c-44.106-2.213-83.214-23.342-109.389-55.451c-13.903,23.849-7.213,55.059,16.425,70.856
	c-8.7-0.275-16.887-2.664-24.04-6.64c-0.576,24.589,17.047,47.583,42.566,52.71c-7.469,2.034-15.65,2.499-23.966,0.909
	c6.753,21.087,26.355,36.43,49.578,36.857c-22.312,17.486-50.416,25.295-78.571,21.977c23.484,15.059,51.382,23.844,81.354,23.844
	c98.534,0,154.202-83.227,150.848-157.869C379.354,210.089,388.351,200.741,395.467,190.098z"/>
</svg>
