<?xml version="1.0" encoding="utf-8"?>
<!-- Generator: Adobe Illustrator 16.0.0, SVG Export Plug-In . SVG Version: 6.00 Build 0)  -->
<!DOCTYPE svg PUBLIC "-//W3C//DTD SVG 1.1//EN" "http://www.w3.org/Graphics/SVG/1.1/DTD/svg11.dtd">
<svg version="1.1" id="Layer_2" xmlns="http://www.w3.org/2000/svg" xmlns:xlink="http://www.w3.org/1999/xlink" x="0px" y="0px"
	 width="512px" height="512px" viewBox="0 0 512 512" enable-background="new 0 0 512 512" xml:space="preserve">
<g>
	<path fill="#777777" d="M256.992,30c30.523,0,60.118,5.971,87.96,17.748c26.909,11.381,51.081,27.681,71.847,48.446
		c20.765,20.765,37.064,44.938,48.445,71.846c11.776,27.843,17.748,57.438,17.748,87.96c0,30.523-5.972,60.117-17.748,87.961
		c-11.381,26.908-27.681,51.08-48.445,71.846c-20.766,20.765-44.938,37.064-71.847,48.445C317.109,476.028,287.516,482,256.992,482
		c-30.523,0-60.117-5.972-87.96-17.748c-26.908-11.381-51.081-27.681-71.846-48.445c-20.765-20.766-37.065-44.938-48.446-71.846
		C36.963,316.117,30.992,286.523,30.992,256c0-30.523,5.971-60.117,17.748-87.96c11.381-26.908,27.681-51.081,48.446-71.846
		c20.765-20.765,44.938-37.065,71.846-48.446C196.875,35.971,226.469,30,256.992,30 M256.992,0c-141.385,0-256,114.615-256,256
		c0,141.386,114.615,256,256,256c141.386,0,256-114.614,256-256C512.992,114.615,398.378,0,256.992,0L256.992,0z"/>
</g>
<g id="Layer_1">
	<text transform="matrix(1 0 0 1 142.2153 360.5039)" fill="#777777" font-family="'OriyaSangamMN'" font-size="400">in</text>
</g>
</svg>
