<?xml version="1.0" encoding="utf-8"?>
<!-- Generator: Adobe Illustrator 16.0.0, SVG Export Plug-In . SVG Version: 6.00 Build 0)  -->
<!DOCTYPE svg PUBLIC "-//W3C//DTD SVG 1.1//EN" "http://www.w3.org/Graphics/SVG/1.1/DTD/svg11.dtd">
<svg version="1.1" id="Layer_2" xmlns="http://www.w3.org/2000/svg" xmlns:xlink="http://www.w3.org/1999/xlink" x="0px" y="0px"
	 width="512px" height="512px" viewBox="0 0 512 512" enable-background="new 0 0 512 512" xml:space="preserve">
<text transform="matrix(1 0 0 1 138.6318 344.7021)" fill="#777777" font-family="'TwCenMT-Bold'" font-size="300">in</text>
<path fill="#777777" d="M257.21,36.691c29.698,0,58.489,5.809,85.574,17.264c26.179,11.072,49.696,26.931,69.899,47.135
	c20.203,20.204,36.062,43.721,47.135,69.899c11.456,27.084,17.265,55.875,17.265,85.572c0,29.698-5.809,58.49-17.265,85.574
	c-11.072,26.18-26.932,49.696-47.135,69.899c-20.203,20.204-43.722,36.062-69.899,47.135
	c-27.084,11.456-55.876,17.265-85.574,17.265s-58.489-5.809-85.573-17.265c-26.178-11.072-49.695-26.931-69.899-47.134
	c-20.204-20.204-36.062-43.723-47.135-69.9c-11.456-27.084-17.264-55.875-17.264-85.574c0-29.697,5.809-58.488,17.264-85.572
	c11.072-26.178,26.931-49.695,47.135-69.899c20.204-20.204,43.721-36.062,69.899-47.135C198.721,42.5,227.512,36.691,257.21,36.691
	 M257.21,1.691c-140.762,0-254.872,114.11-254.872,254.872c0,140.764,114.109,254.873,254.872,254.873
	c140.764,0,254.873-114.109,254.873-254.873C512.083,115.801,397.974,1.691,257.21,1.691L257.21,1.691z"/>
</svg>
