<?xml version="1.0" encoding="utf-8"?>
<!-- Generator: Adobe Illustrator 16.0.0, SVG Export Plug-In . SVG Version: 6.00 Build 0)  -->
<!DOCTYPE svg PUBLIC "-//W3C//DTD SVG 1.1//EN" "http://www.w3.org/Graphics/SVG/1.1/DTD/svg11.dtd">
<svg version="1.1" id="Layer_1" xmlns="http://www.w3.org/2000/svg" xmlns:xlink="http://www.w3.org/1999/xlink" x="0px" y="0px"
	 width="512px" height="512px" viewBox="0 0 512 512" enable-background="new 0 0 512 512" xml:space="preserve">
<path id="email-10-icon" fill="#DD362D" d="M256.5,49.709c55.104,0,106.905,21.458,145.87,60.42
	c38.966,38.964,60.422,90.767,60.422,145.871c0,55.103-21.458,106.907-60.422,145.871c-38.965,38.961-90.767,60.42-145.87,60.42
	c-55.103,0-106.905-21.459-145.871-60.42C71.667,362.907,50.209,311.103,50.209,256c0-55.104,21.458-106.905,60.42-145.871
	C149.594,71.166,201.397,49.709,256.5,49.709 M256.5,0C115.114,0,0.5,114.614,0.5,256s114.614,256,256,256
	c141.386,0,256-114.614,256-256S397.886,0,256.5,0L256.5,0z M203.582,246.5l-76.399-58.688v135.086L203.582,246.5z M387.625,160.533
	H128.081l129.669,99.606L387.625,160.533z M294.093,260.221l-36.354,27.882l-36.415-27.971l-93.823,93.823h260.33L294.093,260.221z
	 M311.849,246.603l76.454,76.455V187.966L311.849,246.603z"/>
</svg>
