<?xml version="1.0" encoding="utf-8"?>
<!-- Generator: Adobe Illustrator 16.0.0, SVG Export Plug-In . SVG Version: 6.00 Build 0)  -->
<!DOCTYPE svg PUBLIC "-//W3C//DTD SVG 1.1//EN" "http://www.w3.org/Graphics/SVG/1.1/DTD/svg11.dtd">
<svg version="1.1" id="Layer_2" xmlns="http://www.w3.org/2000/svg" xmlns:xlink="http://www.w3.org/1999/xlink" x="0px" y="0px"
	 width="512px" height="512px" viewBox="0 0 512 512" enable-background="new 0 0 512 512" xml:space="preserve">
<g id="Layer_1">
	<text transform="matrix(1 0 0 1 94.1304 378.127)" fill="#777777" font-family="'PTSans-Regular'" font-size="400">in</text>
</g>
<g>
	<path fill="#777777" d="M255.999,30.996c30.389,0,59.854,5.945,87.574,17.67c26.789,11.331,50.855,27.559,71.529,48.232
		c20.674,20.673,36.902,44.739,48.232,71.529c11.725,27.72,17.67,57.184,17.67,87.572c0,30.389-5.945,59.854-17.67,87.574
		c-11.33,26.789-27.559,50.855-48.232,71.529s-44.74,36.902-71.529,48.232c-27.721,11.725-57.186,17.67-87.574,17.67
		c-30.388,0-59.852-5.945-87.572-17.67c-26.79-11.33-50.856-27.559-71.529-48.232c-20.674-20.674-36.901-44.74-48.232-71.529
		c-11.725-27.721-17.67-57.186-17.67-87.574c0-30.388,5.945-59.852,17.67-87.572c11.331-26.79,27.559-50.856,48.232-71.529
		c20.673-20.674,44.739-36.901,71.529-48.232C196.147,36.941,225.611,30.996,255.999,30.996 M255.999,1.128
		c-140.761,0-254.871,114.11-254.871,254.871c0,140.764,114.11,254.873,254.871,254.873c140.764,0,254.873-114.109,254.873-254.873
		C510.872,115.238,396.763,1.128,255.999,1.128L255.999,1.128z"/>
</g>
</svg>
