<?xml version="1.0" encoding="utf-8"?>
<!-- Generator: Adobe Illustrator 16.0.0, SVG Export Plug-In . SVG Version: 6.00 Build 0)  -->
<!DOCTYPE svg PUBLIC "-//W3C//DTD SVG 1.1//EN" "http://www.w3.org/Graphics/SVG/1.1/DTD/svg11.dtd">
<svg version="1.1" id="Layer_2" xmlns="http://www.w3.org/2000/svg" xmlns:xlink="http://www.w3.org/1999/xlink" x="0px" y="0px"
	 width="512px" height="512px" viewBox="0 0 512 512" enable-background="new 0 0 512 512" xml:space="preserve">
<g id="Layer_3">
	<line fill="none" stroke="#777777" stroke-width="35" stroke-miterlimit="10" x1="256" y1="219.5" x2="256" y2="386.39"/>
	<circle fill="#777777" cx="256" cy="163.75" r="18.75"/>
</g>
<text transform="matrix(1 0 0 1 205.1743 386.3896)" display="none" fill="#777777" enable-background="new    " font-family="'TwCenMT-Bold'" font-size="400">i</text>
<path fill="#777777" d="M257.127,36.127c29.698,0,58.489,5.81,85.574,17.265c26.179,11.071,49.696,26.931,69.899,47.135
	s36.062,43.721,47.135,69.899C471.191,197.51,477,226.301,477,255.998c0,29.698-5.809,58.491-17.265,85.575
	c-11.072,26.18-26.932,49.695-47.135,69.898c-20.203,20.205-43.722,36.062-69.899,47.135
	c-27.084,11.457-55.876,17.266-85.574,17.266c-29.699,0-58.49-5.809-85.574-17.266c-26.178-11.072-49.695-26.93-69.899-47.133
	c-20.204-20.205-36.062-43.723-47.135-69.9c-11.456-27.084-17.264-55.875-17.264-85.575c0-29.696,5.809-58.487,17.264-85.571
	c11.072-26.179,26.931-49.695,47.135-69.899c20.204-20.204,43.721-36.062,69.899-47.135
	C198.637,41.936,227.428,36.127,257.127,36.127 M257.127,1.127C116.364,1.127,2.255,115.238,2.255,256
	c0,140.764,114.109,254.874,254.872,254.874C397.891,510.873,512,396.764,512,256C512,115.238,397.891,1.127,257.127,1.127
	L257.127,1.127z"/>
</svg>
