<?xml version="1.0" encoding="utf-8"?>
<!-- Generator: Adobe Illustrator 16.0.0, SVG Export Plug-In . SVG Version: 6.00 Build 0)  -->
<!DOCTYPE svg PUBLIC "-//W3C//DTD SVG 1.1//EN" "http://www.w3.org/Graphics/SVG/1.1/DTD/svg11.dtd">
<svg version="1.1" id="Layer_2" xmlns="http://www.w3.org/2000/svg" xmlns:xlink="http://www.w3.org/1999/xlink" x="0px" y="0px"
	 width="512px" height="512px" viewBox="0 0 512 512" enable-background="new 0 0 512 512" xml:space="preserve">
<path fill="#777777" d="M255.999,36.128c29.699,0,58.49,5.809,85.574,17.264c26.18,11.072,49.697,26.931,69.898,47.135
	c20.203,20.204,36.062,43.721,47.137,69.899c11.455,27.084,17.264,55.875,17.264,85.571c0,29.699-5.809,58.49-17.264,85.574
	c-11.072,26.18-26.934,49.697-47.137,69.9c-20.201,20.203-43.721,36.061-69.898,47.135c-27.084,11.455-55.875,17.264-85.574,17.264
	c-29.697,0-58.488-5.809-85.572-17.264c-26.178-11.072-49.695-26.932-69.899-47.135c-20.204-20.203-36.062-43.723-47.135-69.9
	c-11.456-27.084-17.264-55.875-17.264-85.574c0-29.696,5.809-58.487,17.264-85.571c11.072-26.178,26.931-49.695,47.135-69.899
	c20.204-20.204,43.721-36.062,69.899-47.135C197.511,41.937,226.302,36.128,255.999,36.128 M255.999,1.128
	c-140.761,0-254.871,114.11-254.871,254.871c0,140.766,114.109,254.873,254.871,254.873c140.764,0,254.873-114.107,254.873-254.873
	C510.872,115.238,396.763,1.128,255.999,1.128L255.999,1.128z"/>
<g>
	<circle fill="#777777" cx="179.371" cy="163.175" r="26.281"/>
	<rect x="157.4" y="219.285" fill="#777777" width="43.941" height="143.79"/>
	<text transform="matrix(1 0 0 1 224.6523 363.0762)" fill="#777777" font-family="'HelveticaNeue-Bold'" font-size="277">n</text>
</g>
</svg>
