<?xml version="1.0" encoding="utf-8"?>
<!-- Generator: Adobe Illustrator 16.0.0, SVG Export Plug-In . SVG Version: 6.00 Build 0)  -->
<!DOCTYPE svg PUBLIC "-//W3C//DTD SVG 1.1//EN" "http://www.w3.org/Graphics/SVG/1.1/DTD/svg11.dtd">
<svg version="1.1" id="Layer_1" xmlns="http://www.w3.org/2000/svg" xmlns:xlink="http://www.w3.org/1999/xlink" x="0px" y="0px"
	 width="512px" height="512px" viewBox="0 0 512 512" enable-background="new 0 0 512 512" xml:space="preserve">
<path id="twitter-5-icon" d="M257.25,50.771c113.008,0,204.478,91.455,204.478,204.479c0,113.007-91.453,204.478-204.478,204.478
	c-113.009,0-204.479-91.453-204.479-204.478C52.771,142.243,144.226,50.771,257.25,50.771 M257.25,1.5
	C117.107,1.5,3.5,115.107,3.5,255.25C3.5,395.394,117.107,509,257.25,509C397.394,509,511,395.394,511,255.25
	C511,115.107,397.394,1.5,257.25,1.5L257.25,1.5z M396.193,188.729c-9.5,4.212-19.707,7.061-30.422,8.34
	c10.934-6.556,19.334-16.935,23.288-29.304c-10.236,6.07-21.57,10.478-33.637,12.854c-9.661-10.294-23.429-16.727-38.661-16.727
	c-34.19,0-59.326,31.906-51.602,65.038c-44.02-2.208-83.051-23.296-109.174-55.342c-13.876,23.802-7.199,54.951,16.393,70.717
	c-8.683-0.275-16.854-2.659-23.993-6.627c-0.575,24.541,17.013,47.49,42.482,52.607c-7.454,2.029-15.62,2.493-23.919,0.906
	c6.74,21.046,26.303,36.358,49.48,36.785c-22.269,17.452-50.317,25.245-78.417,21.934c23.438,15.028,51.281,23.797,81.193,23.797
	c98.34,0,153.898-83.062,150.552-157.559C380.111,208.681,389.091,199.351,396.193,188.729z"/>
</svg>
