<?xml version="1.0" encoding="utf-8"?>
<!-- Generator: Adobe Illustrator 16.0.0, SVG Export Plug-In . SVG Version: 6.00 Build 0)  -->
<!DOCTYPE svg PUBLIC "-//W3C//DTD SVG 1.1//EN" "http://www.w3.org/Graphics/SVG/1.1/DTD/svg11.dtd">
<svg version="1.1" id="Layer_2" xmlns="http://www.w3.org/2000/svg" xmlns:xlink="http://www.w3.org/1999/xlink" x="0px" y="0px"
	 width="512px" height="512px" viewBox="0 0 512 512" enable-background="new 0 0 512 512" xml:space="preserve">
<g>
	<g>
		<path fill="#777777" d="M257.127,36.128c29.698,0,58.489,5.809,85.574,17.264c26.179,11.073,49.696,26.931,69.9,47.135
			c20.203,20.204,36.062,43.721,47.134,69.899C471.191,197.51,477,226.301,477,255.999c0,29.698-5.809,58.49-17.265,85.574
			c-11.072,26.179-26.931,49.696-47.134,69.9c-20.204,20.203-43.722,36.062-69.9,47.134c-27.084,11.456-55.876,17.265-85.574,17.265
			c-29.698,0-58.489-5.809-85.573-17.265c-26.178-11.072-49.695-26.931-69.899-47.134c-20.204-20.204-36.062-43.722-47.135-69.9
			c-11.456-27.084-17.264-55.876-17.264-85.574c0-29.698,5.809-58.489,17.264-85.573c11.072-26.178,26.931-49.696,47.135-69.899
			c20.204-20.204,43.721-36.062,69.899-47.135C198.638,41.937,227.429,36.128,257.127,36.128 M257.127,1.128
			c-140.762,0-254.871,114.11-254.871,254.871c0,140.764,114.109,254.873,254.871,254.873C397.891,510.872,512,396.763,512,255.999
			C512,115.238,397.891,1.128,257.127,1.128L257.127,1.128z"/>
	</g>
</g>
<text transform="matrix(1 0 0 1 136.7144 345.2656)" fill="#777777" font-family="'TwCenMT-Bold'" font-size="300">in</text>
</svg>
