<?xml version="1.0" encoding="utf-8"?>
<!-- Generator: Adobe Illustrator 16.0.0, SVG Export Plug-In . SVG Version: 6.00 Build 0)  -->
<!DOCTYPE svg PUBLIC "-//W3C//DTD SVG 1.1//EN" "http://www.w3.org/Graphics/SVG/1.1/DTD/svg11.dtd">
<svg version="1.1" id="Layer_1" xmlns="http://www.w3.org/2000/svg" xmlns:xlink="http://www.w3.org/1999/xlink" x="0px" y="0px"
	 width="512px" height="512px" viewBox="0 0 512 512" enable-background="new 0 0 512 512" xml:space="preserve">
<path id="github-2-circle-outline-icon" d="M256.25,51.674c54.51,0,105.759,21.228,144.303,59.772
	c38.546,38.546,59.772,89.793,59.772,144.303c0,54.51-21.227,105.758-59.772,144.303c-38.544,38.544-89.793,59.772-144.303,59.772
	c-54.51,0-105.757-21.229-144.303-59.772C73.402,361.508,52.175,310.26,52.175,255.75c0-54.51,21.228-105.757,59.772-144.303
	C150.493,72.902,201.74,51.674,256.25,51.674 M256.25,2.5C116.383,2.5,3,115.883,3,255.75C3,395.616,116.383,509,256.25,509
	c139.866,0,253.25-113.384,253.25-253.25C509.5,115.883,396.116,2.5,256.25,2.5L256.25,2.5z M422.522,268.693l0.292-3.041
	c-18.238-1.771-36.381-1.928-54.002-0.582c2.832-9.041,4.324-19.251,4.218-30.863c-0.232-24.667-8.458-43.878-21.385-59.823
	c2.482-15.018,0.612-30.035-4.071-45.058c-18.471,1.512-35.096,7.562-49.897,18.071c-27.663-5.61-55.322-5.968-82.986,0
	c-17.266-11.653-34.22-17.367-50.911-18.071c-4.949,16.542-5.712,32.847-1.528,48.879c-14.562,15.454-20.128,34.211-19.855,54.982
	c0.156,11.89,1.987,22.472,5.368,31.826c-17.365-1.274-35.212-1.102-53.162,0.638l0.293,3.041c18.28-1.772,36.453-1.92,54.107-0.538
	c0.647,1.571,1.3,3.137,2.044,4.633c-19.128-0.503-36.342,1.157-52.462,5.122l0.728,2.965c16.363-4.02,33.889-5.641,53.459-4.982
	c12.941,22.994,37.858,36.504,74.138,40.793c-8.428,6.845-12.96,14.921-14.127,24.06c0,0-3.814,0-19.215,0
	c-25.807,0-32.843-32.905-59.572-29.659c25.931,12.86,20.751,53.965,62.247,53.965c13.945,0,16.91,0,17.434,0v37.679
	c0.185,6.087-2.467,10.159-6.747,12.981c14.86,1.5,26.028-5.919,26.028-15.021c0-9.1,0-45.365,0-49.804
	c0-4.438,4.646-4.78,4.646-4.78v58.148c0.196,5.787-2.617,9.077-5.602,12.218c13.091,0.524,25.407-2.091,25.964-13.234
	c0,0,0-52.854,0-55.651c0-2.8,4.585-2.867,4.585,0c0,2.866,0,53.042,0,53.042c0.135,9.397,8.254,17.019,25.454,15.844
	c-4.601-3.702-6.014-7.448-6.014-12.864c0-5.417,0-57.502,0-57.502s4.74-0.242,4.74,4.78s0,40.095,0,48.5
	c0,10.793,12.957,15.247,27.744,14.829c-4.844-3.631-8.123-7.959-8.144-13.747v-58.324c-0.5-8.574-3.985-16.656-10.82-24.187
	c33.165-5.092,57.07-18.33,68.973-42.058c19.633-0.676,37.214,0.941,53.619,4.975l0.728-2.965
	c-16.245-3.993-33.603-5.654-52.908-5.11c0.666-1.508,1.33-3.019,1.9-4.608C385.662,266.759,404.039,266.898,422.522,268.693z
	 M145.587,315.997c-0.815,0-1.476-0.47-1.476-1.045c0-0.579,0.661-1.049,1.476-1.049c0.816,0,1.477,0.47,1.477,1.049
	C147.065,315.527,146.403,315.997,145.587,315.997z M150.235,319.168c-0.906,0-1.642-0.521-1.642-1.163s0.735-1.163,1.642-1.163
	c0.904,0,1.64,0.521,1.64,1.163S151.139,319.168,150.235,319.168z M154.949,323.286c-1.063,0-1.924-0.61-1.924-1.362
	c0-0.754,0.86-1.365,1.924-1.365c1.062,0,1.923,0.611,1.923,1.365C156.873,322.676,156.011,323.286,154.949,323.286z
	 M159.53,328.231c-1.243,0-2.251-0.716-2.251-1.599c0-0.878,1.008-1.594,2.251-1.594c1.241,0,2.248,0.716,2.248,1.594
	C161.777,327.516,160.771,328.231,159.53,328.231z M164.575,333.82c-1.38,0-2.5-0.796-2.5-1.775s1.12-1.772,2.5-1.772
	c1.381,0,2.5,0.793,2.5,1.772S165.956,333.82,164.575,333.82z M170.417,339.49c-1.535,0-2.781-0.88-2.781-1.969
	s1.246-1.972,2.781-1.972c1.532,0,2.777,0.883,2.777,1.972C173.193,338.61,171.95,339.49,170.417,339.49z M178.317,344.89
	c-1.707,0-3.088-0.981-3.088-2.19c0-1.21,1.381-2.192,3.088-2.192c1.704,0,3.085,0.982,3.085,2.192
	C181.402,343.908,180.021,344.89,178.317,344.89z M188.107,347.778c-1.704,0-3.087-0.983-3.087-2.191
	c0-1.21,1.383-2.191,3.087-2.191c1.707,0,3.087,0.981,3.087,2.191C191.194,346.795,189.813,347.778,188.107,347.778z
	 M198.431,348.109c-1.706,0-3.086-0.98-3.086-2.188c0-1.21,1.38-2.192,3.086-2.192c1.705,0,3.088,0.983,3.088,2.192
	C201.518,347.129,200.134,348.109,198.431,348.109z M208.621,348.309c-1.704,0-3.087-0.979-3.087-2.189
	c0-1.209,1.383-2.193,3.087-2.193c1.706,0,3.088,0.984,3.088,2.193C211.708,347.329,210.327,348.309,208.621,348.309z"/>
</svg>
