<?xml version="1.0" encoding="utf-8"?>
<!-- Generator: Adobe Illustrator 16.0.0, SVG Export Plug-In . SVG Version: 6.00 Build 0)  -->
<!DOCTYPE svg PUBLIC "-//W3C//DTD SVG 1.1//EN" "http://www.w3.org/Graphics/SVG/1.1/DTD/svg11.dtd">
<svg version="1.1" id="Layer_1" xmlns="http://www.w3.org/2000/svg" xmlns:xlink="http://www.w3.org/1999/xlink" x="0px" y="0px"
	 width="512px" height="512px" viewBox="0 0 512 512" enable-background="new 0 0 512 512" xml:space="preserve">
<path id="email-10-icon" d="M256.75,51.869c54.726,0,106.174,21.312,144.873,60.008c38.698,38.697,60.008,90.146,60.008,144.873
	c0,54.726-21.311,106.176-60.008,144.874c-38.699,38.695-90.147,60.007-144.873,60.007s-106.175-21.312-144.873-60.007
	c-38.696-38.698-60.008-90.148-60.008-144.874c0-54.727,21.312-106.175,60.008-144.873C150.574,73.179,202.024,51.869,256.75,51.869
	 M256.75,2.5C116.331,2.5,2.5,116.331,2.5,256.75S116.331,511,256.75,511S511,397.169,511,256.75S397.169,2.5,256.75,2.5L256.75,2.5
	z M204.195,247.315l-75.878-58.286v134.162L204.195,247.315z M386.979,161.935H129.21l128.781,98.926L386.979,161.935z
	 M294.088,260.941l-36.107,27.692l-36.167-27.78l-93.181,93.182h258.55L294.088,260.941z M311.72,247.417l75.933,75.932V189.181
	L311.72,247.417z"/>
</svg>
