<?xml version="1.0" encoding="utf-8"?>
<!-- Generator: Adobe Illustrator 16.0.0, SVG Export Plug-In . SVG Version: 6.00 Build 0)  -->
<!DOCTYPE svg PUBLIC "-//W3C//DTD SVG 1.1//EN" "http://www.w3.org/Graphics/SVG/1.1/DTD/svg11.dtd">
<svg version="1.1" id="Layer_1" xmlns="http://www.w3.org/2000/svg" xmlns:xlink="http://www.w3.org/1999/xlink" x="0px" y="0px"
	 width="512px" height="512px" viewBox="0 0 512 512" enable-background="new 0 0 512 512" xml:space="preserve">
<path id="email-10-icon" fill="none" stroke="#DD362D" stroke-width="9.8328" stroke-linejoin="round" stroke-miterlimit="10" d="
	M256.5,54.544c53.812,0,104.399,20.956,142.451,59.004c38.052,38.051,59.005,88.639,59.005,142.452
	c0,53.811-20.954,104.401-59.005,142.452c-38.052,38.049-88.64,59.004-142.451,59.004s-104.4-20.955-142.452-59.004
	C76,360.401,55.044,309.811,55.044,256c0-53.812,20.956-104.4,59.004-142.452C152.099,75.498,202.688,54.544,256.5,54.544 M256.5,6
	C118.428,6,6.5,117.928,6.5,256c0,138.072,111.928,250,250,250c138.072,0,250-111.928,250-250C506.5,117.928,394.572,6,256.5,6
	L256.5,6z M204.823,246.723l-74.609-57.312v131.92L204.823,246.723z M384.552,162.77h-253.46l126.629,97.272L384.552,162.77z
	 M293.213,260.122L257.71,287.35l-35.562-27.314l-91.624,91.623h254.229L293.213,260.122z M310.552,246.823l74.662,74.662V189.561
	L310.552,246.823z"/>
</svg>
