<?xml version="1.0" encoding="utf-8"?>
<!-- Generator: Adobe Illustrator 16.0.0, SVG Export Plug-In . SVG Version: 6.00 Build 0)  -->
<!DOCTYPE svg PUBLIC "-//W3C//DTD SVG 1.1//EN" "http://www.w3.org/Graphics/SVG/1.1/DTD/svg11.dtd">
<svg version="1.1" id="Layer_2" xmlns="http://www.w3.org/2000/svg" xmlns:xlink="http://www.w3.org/1999/xlink" x="0px" y="0px"
	 width="512px" height="512px" viewBox="0 0 512 512" enable-background="new 0 0 512 512" xml:space="preserve">
<g>
	<g>
		<path fill="#777777" d="M257.127,42.256c29.025,0,57.162,5.676,83.627,16.87c25.582,10.82,48.565,26.318,68.312,46.065
			c19.746,19.746,35.245,42.729,46.065,68.312c11.193,26.464,16.869,54.6,16.869,83.625c0,29.025-5.676,57.162-16.869,83.627
			c-10.82,25.582-26.319,48.565-46.065,68.312s-42.729,35.245-68.312,46.065C314.289,466.324,286.152,472,257.127,472
			s-57.161-5.676-83.625-16.869c-25.582-10.82-48.565-26.319-68.312-46.065c-19.746-19.746-35.245-42.729-46.065-68.312
			c-11.193-26.465-16.869-54.602-16.869-83.627c0-29.025,5.676-57.161,16.869-83.625c10.82-25.582,26.319-48.565,46.065-68.312
			c19.747-19.747,42.73-35.245,68.312-46.065C199.966,47.932,228.102,42.256,257.127,42.256 M257.127,2.256
			c-140.762,0-254.871,114.11-254.871,254.871C2.256,397.891,116.365,512,257.127,512C397.891,512,512,397.891,512,257.127
			C512,116.366,397.891,2.256,257.127,2.256L257.127,2.256z"/>
	</g>
</g>
<text transform="matrix(1 0 0 1 134.8794 359.877)" fill="#777777" font-family="'PTSans-Regular'" font-size="300">in</text>
</svg>
