<?xml version="1.0" encoding="utf-8"?>
<!-- Generator: Adobe Illustrator 16.0.0, SVG Export Plug-In . SVG Version: 6.00 Build 0)  -->
<!DOCTYPE svg PUBLIC "-//W3C//DTD SVG 1.1//EN" "http://www.w3.org/Graphics/SVG/1.1/DTD/svg11.dtd">
<svg version="1.1" xmlns="http://www.w3.org/2000/svg" xmlns:xlink="http://www.w3.org/1999/xlink" x="0px" y="0px" width="200px"
	 height="200px" viewBox="0 0 200 200" enable-background="new 0 0 200 200" xml:space="preserve">
<g id="Layer_3" display="none">
	<rect x="-82.793" y="-48.333" display="inline" fill="#190C11" width="357.383" height="294.667"/>
</g>
<g id="Layer_1">
	<g>
		<g>
			<path d="M160.156,97.647c-55.949,0-101.467-45.91-101.467-102.341c0-56.43,45.518-102.339,101.467-102.339
				S261.623-61.124,261.623-4.694C261.623,51.737,216.105,97.647,160.156,97.647z"/>
			<path fill="#777777" d="M160.156-97.222c50.539,0,91.656,41.508,91.656,92.528c0,51.021-41.117,92.53-91.656,92.53
				S68.5,46.327,68.5-4.694C68.5-55.714,109.617-97.222,160.156-97.222 M160.156-116.844c-61.458,0-111.278,50.212-111.278,112.15
				c0,61.94,49.82,112.152,111.278,112.152c61.456,0,111.278-50.211,111.278-112.152
				C271.435-66.632,221.612-116.844,160.156-116.844L160.156-116.844z"/>
		</g>
		<g>
			<path d="M293.69,97.648c-55.949,0-101.468-45.91-101.468-102.34c0-56.43,45.519-102.339,101.468-102.339
				c55.948,0,101.466,45.909,101.466,102.339C395.156,51.738,349.639,97.648,293.69,97.648z"/>
			<path fill="#777777" d="M293.69-97.221c50.538,0,91.654,41.508,91.654,92.528c0,51.021-41.116,92.529-91.654,92.529
				c-50.539,0-91.656-41.508-91.656-92.529C202.034-55.712,243.151-97.221,293.69-97.221 M293.69-116.843
				c-61.458,0-111.278,50.212-111.278,112.15c0,61.941,49.82,112.151,111.278,112.151c61.456,0,111.276-50.21,111.276-112.151
				C404.967-66.63,355.146-116.843,293.69-116.843L293.69-116.843z"/>
		</g>
		<path fill="#B22859" d="M182.412-4.694c0,36.689,17.484,69.262,44.509,89.723c27.026-20.46,44.514-53.033,44.514-89.724
			c0-36.688-17.487-69.259-44.512-89.72C199.896-73.954,182.412-41.384,182.412-4.694z"/>
	</g>
	<g display="none">
		<path display="inline" fill="#EEEEEE" d="M89.942,68.295c6.636,1.468,11.512,7.438,11.512,14.327
			c0,6.888-4.875,12.858-11.511,14.327c-0.076-0.278-0.149-0.553-0.218-0.829c-0.058-0.232-0.111-0.467-0.164-0.702l-0.067-0.299
			c-0.167-0.728-0.306-1.38-0.423-1.994C89,92.753,88.934,92.376,88.87,92c-0.106-0.622-0.205-1.282-0.296-1.967
			c-0.051-0.377-0.102-0.755-0.145-1.133c-0.068-0.609-0.127-1.265-0.191-2.124l-0.032-0.396c-0.017-0.201-0.033-0.401-0.044-0.604
			c-0.064-1.133-0.095-2.165-0.095-3.158c0-0.988,0.031-2.018,0.095-3.149c0.011-0.209,0.029-0.416,0.046-0.623l0.031-0.385
			c0.062-0.834,0.122-1.506,0.19-2.111c0.043-0.379,0.093-0.754,0.146-1.15c0.093-0.692,0.188-1.329,0.293-1.949
			c0.065-0.383,0.132-0.764,0.204-1.14c0.116-0.604,0.253-1.248,0.418-1.969l0.072-0.319c0.053-0.237,0.106-0.474,0.166-0.711
			C89.795,68.839,89.867,68.569,89.942,68.295 M89.011,66.804c-0.191,0.66-0.38,1.32-0.547,1.992
			c-0.087,0.349-0.163,0.702-0.244,1.053c-0.153,0.667-0.298,1.338-0.428,2.014c-0.074,0.388-0.142,0.777-0.208,1.169
			c-0.112,0.66-0.211,1.326-0.3,1.994c-0.053,0.392-0.105,0.782-0.15,1.177c-0.08,0.716-0.141,1.438-0.195,2.16
			c-0.025,0.345-0.059,0.687-0.078,1.033c-0.06,1.066-0.097,2.14-0.097,3.221c0,0.002,0,0.002,0,0.004
			c0,1.084,0.037,2.159,0.097,3.228c0.019,0.342,0.053,0.681,0.078,1.021c0.054,0.728,0.115,1.454,0.196,2.174
			c0.044,0.389,0.096,0.776,0.148,1.163c0.089,0.674,0.189,1.346,0.303,2.011c0.065,0.385,0.133,0.771,0.206,1.153
			c0.131,0.684,0.277,1.363,0.433,2.041c0.078,0.342,0.152,0.687,0.237,1.026c0.168,0.674,0.358,1.338,0.549,2.002
			c7.766-1.095,13.746-7.75,13.746-15.818C102.757,74.554,96.777,67.898,89.011,66.804L89.011,66.804z"/>
	</g>
	<g display="none">
		<path display="inline" fill="#EEEEEE" d="M129.132,68.297c0.073,0.269,0.146,0.541,0.214,0.815
			c0.06,0.242,0.114,0.485,0.169,0.729l0.068,0.299c0.164,0.716,0.301,1.36,0.418,1.972c0.073,0.379,0.14,0.76,0.204,1.143
			c0.103,0.594,0.198,1.231,0.295,1.944c0.051,0.383,0.102,0.767,0.145,1.15c0.07,0.627,0.131,1.298,0.19,2.113l0.031,0.395
			c0.018,0.203,0.035,0.406,0.046,0.613c0.063,1.141,0.095,2.171,0.095,3.153c0,0.979-0.031,2.011-0.095,3.156
			c-0.012,0.212-0.029,0.422-0.046,0.632l-0.029,0.366c-0.06,0.799-0.122,1.495-0.191,2.119c-0.039,0.335-0.083,0.67-0.127,1.004
			l-0.018,0.136c-0.089,0.659-0.188,1.315-0.297,1.966c-0.063,0.375-0.13,0.75-0.203,1.129c-0.132,0.699-0.286,1.398-0.42,1.985
			l-0.072,0.317c-0.052,0.231-0.104,0.463-0.161,0.691c-0.069,0.277-0.143,0.553-0.217,0.824c-6.637-1.47-11.512-7.44-11.512-14.328
			S122.495,69.766,129.132,68.297 M130.062,66.806c-7.765,1.095-13.745,7.75-13.745,15.817c0,8.069,5.98,14.723,13.745,15.819
			c0.192-0.663,0.382-1.327,0.55-2c0.085-0.341,0.16-0.688,0.239-1.032c0.153-0.676,0.302-1.353,0.431-2.037
			c0.074-0.383,0.142-0.767,0.207-1.153c0.112-0.667,0.213-1.337,0.304-2.01c0.051-0.388,0.103-0.776,0.147-1.166
			c0.08-0.72,0.143-1.445,0.196-2.173c0.025-0.341,0.059-0.679,0.077-1.023c0.06-1.068,0.097-2.143,0.097-3.226
			c0-0.001,0-0.002,0-0.004c0-1.082-0.037-2.155-0.097-3.222c-0.019-0.345-0.054-0.688-0.079-1.031
			c-0.053-0.724-0.114-1.446-0.194-2.162c-0.045-0.394-0.097-0.785-0.148-1.176c-0.09-0.668-0.188-1.333-0.302-1.994
			c-0.066-0.391-0.134-0.782-0.209-1.17c-0.13-0.677-0.274-1.348-0.428-2.016c-0.08-0.351-0.156-0.702-0.242-1.05
			C130.443,68.128,130.254,67.466,130.062,66.806L130.062,66.806z"/>
	</g>
	
		<line display="none" fill="none" stroke="#EEEEEE" stroke-width="1.3027" stroke-miterlimit="10" x1="109.536" y1="37.076" x2="109.536" y2="128.169"/>
	<g id="Layer_4">
	</g>
	<text transform="matrix(0.9922 0 0 1 113.0547 12.6519)" fill="#EEEEEE" font-family="'MyriadPro-Regular'" font-size="59.097">doubledi</text>
	<text transform="matrix(0.9922 0 0 1 -29.4062 170.0596)" fill="#777777" font-family="'MyriadPro-Regular'" font-size="59.097">mobile development</text>
</g>
<g id="Layer_6">
</g>
<g id="Layer_5">
</g>
<g id="Layer_2" display="none">
	<g>
		<path display="inline" fill="#FFFFFF" d="M74.032,82.483c6.192,1.441,10.603,6.936,10.603,13.369
			c0,6.433-4.411,11.928-10.603,13.37c-0.087-0.254-0.172-0.508-0.251-0.765c-0.023-0.074-0.043-0.15-0.064-0.227l-0.056-0.2
			c-0.192-0.646-0.355-1.24-0.5-1.816c-0.046-0.186-0.088-0.372-0.13-0.56l-0.047-0.211c-0.117-0.507-0.227-1.016-0.325-1.527
			c-0.054-0.286-0.106-0.575-0.155-0.866c-0.085-0.499-0.159-1.003-0.228-1.512c-0.039-0.289-0.078-0.579-0.111-0.868
			c-0.06-0.541-0.106-1.086-0.146-1.629l-0.024-0.31c-0.013-0.151-0.025-0.303-0.033-0.46c-0.049-0.855-0.073-1.646-0.073-2.423
			c0-0.772,0.024-1.562,0.073-2.422c0.008-0.162,0.022-0.323,0.036-0.484l0.022-0.286c0.041-0.542,0.086-1.084,0.146-1.62
			c0.033-0.295,0.072-0.588,0.113-0.884c0.067-0.501,0.141-1,0.225-1.496c0.05-0.293,0.102-0.586,0.156-0.875
			c0.098-0.507,0.207-1.011,0.32-1.509L73.042,86c0.039-0.174,0.078-0.347,0.122-0.521c0.137-0.551,0.297-1.132,0.49-1.78
			l0.062-0.22c0.022-0.081,0.044-0.162,0.067-0.238C73.862,82.987,73.946,82.734,74.032,82.483 M73.375,81.331
			c-0.188,0.536-0.379,1.07-0.548,1.615c-0.048,0.156-0.088,0.316-0.134,0.474c-0.179,0.601-0.348,1.207-0.5,1.818
			c-0.067,0.268-0.125,0.539-0.188,0.809c-0.117,0.512-0.229,1.027-0.328,1.546c-0.057,0.298-0.109,0.597-0.16,0.897
			c-0.086,0.507-0.162,1.017-0.23,1.53c-0.041,0.301-0.081,0.601-0.115,0.904c-0.062,0.549-0.108,1.103-0.149,1.658
			c-0.02,0.264-0.046,0.527-0.06,0.792c-0.047,0.819-0.074,1.643-0.074,2.473c0,0.001,0,0.001,0,0.002
			c0,0.832,0.027,1.657,0.074,2.478c0.014,0.263,0.04,0.522,0.059,0.784c0.042,0.559,0.089,1.116,0.15,1.669
			c0.034,0.299,0.074,0.596,0.114,0.893c0.069,0.518,0.146,1.033,0.232,1.544c0.05,0.296,0.103,0.592,0.158,0.885
			c0.101,0.525,0.213,1.047,0.333,1.566c0.06,0.263,0.116,0.527,0.182,0.788c0.156,0.626,0.328,1.244,0.511,1.858
			c0.042,0.145,0.079,0.291,0.123,0.435c0.169,0.548,0.361,1.085,0.551,1.623c6.957-1.185,12.259-7.228,12.259-14.521
			C85.635,88.558,80.333,82.516,73.375,81.331L73.375,81.331z"/>
	</g>
	<g>
		<path display="inline" fill="#FFFFFF" d="M102.708,82.482c0.086,0.252,0.17,0.505,0.249,0.76c0.024,0.077,0.045,0.155,0.066,0.234
			l0.062,0.219c0.193,0.651,0.354,1.235,0.491,1.786c0.047,0.188,0.09,0.377,0.133,0.567l0.05,0.219
			c0.114,0.501,0.224,1.005,0.321,1.514c0.056,0.291,0.106,0.583,0.156,0.878c0.085,0.495,0.159,0.993,0.226,1.494
			c0.039,0.293,0.078,0.587,0.111,0.882c0.061,0.537,0.106,1.079,0.146,1.622l0.023,0.3c0.014,0.157,0.027,0.315,0.036,0.474
			c0.049,0.872,0.072,1.663,0.072,2.42c0,0.755-0.023,1.547-0.072,2.421c-0.01,0.162-0.022,0.321-0.036,0.481l-0.022,0.287
			c-0.04,0.546-0.087,1.09-0.146,1.627c-0.028,0.244-0.06,0.486-0.092,0.728l-0.02,0.147c-0.067,0.504-0.144,1.008-0.229,1.509
			c-0.048,0.288-0.099,0.575-0.154,0.865c-0.098,0.514-0.208,1.021-0.323,1.525l-0.054,0.237c-0.041,0.18-0.081,0.359-0.126,0.538
			c-0.14,0.562-0.303,1.156-0.5,1.819l-0.054,0.19c-0.021,0.077-0.042,0.153-0.064,0.228c-0.08,0.257-0.164,0.512-0.252,0.767
			c-6.192-1.442-10.603-6.938-10.603-13.371C92.104,89.418,96.515,83.924,102.708,82.482 M103.364,81.331
			c-6.958,1.185-12.26,7.227-12.26,14.521c0,7.293,5.302,13.336,12.259,14.522c0.19-0.539,0.382-1.076,0.551-1.623
			c0.044-0.143,0.081-0.289,0.123-0.434c0.183-0.613,0.355-1.232,0.511-1.857c0.065-0.262,0.123-0.529,0.184-0.793
			c0.118-0.518,0.231-1.037,0.331-1.562c0.057-0.295,0.108-0.59,0.158-0.885c0.087-0.512,0.164-1.027,0.233-1.543
			c0.039-0.299,0.079-0.596,0.113-0.895c0.062-0.553,0.109-1.109,0.15-1.668c0.02-0.262,0.045-0.522,0.06-0.786
			c0.046-0.82,0.074-1.645,0.074-2.477c0-0.001,0-0.002,0-0.003c0-0.831-0.028-1.654-0.074-2.473
			c-0.015-0.265-0.041-0.528-0.061-0.792c-0.041-0.556-0.088-1.11-0.149-1.66c-0.034-0.302-0.074-0.603-0.114-0.903
			c-0.068-0.513-0.145-1.023-0.231-1.53c-0.051-0.3-0.103-0.6-0.16-0.898c-0.1-0.52-0.211-1.035-0.328-1.547
			c-0.062-0.269-0.12-0.539-0.187-0.806c-0.153-0.616-0.323-1.224-0.503-1.829c-0.045-0.153-0.084-0.31-0.131-0.462
			C103.744,82.403,103.553,81.867,103.364,81.331L103.364,81.331z"/>
	</g>
	
		<line fill="none" stroke="#EEEEEE" stroke-width="1.3027" stroke-miterlimit="10" x1="75.377" y1="139.555" x2="75.377" y2="25.689"/>
	
		<line display="inline" fill="none" stroke="#EEEEEE" stroke-width="1.3027" stroke-miterlimit="10" x1="143.697" y1="139.556" x2="143.697" y2="25.69"/>
</g>
</svg>
