<?xml version="1.0" encoding="utf-8"?>
<!-- Generator: Adobe Illustrator 16.0.0, SVG Export Plug-In . SVG Version: 6.00 Build 0)  -->
<!DOCTYPE svg PUBLIC "-//W3C//DTD SVG 1.1//EN" "http://www.w3.org/Graphics/SVG/1.1/DTD/svg11.dtd">
<svg version="1.1" id="Layer_1" xmlns="http://www.w3.org/2000/svg" xmlns:xlink="http://www.w3.org/1999/xlink" x="0px" y="0px"
	 width="263px" height="155px" viewBox="0 0 263 155" enable-background="new 0 0 263 155" xml:space="preserve">
<g>
	<g>
		<path d="M97.196,109.978c-28.688,0-52.026-23.54-52.026-52.474C45.17,28.57,68.509,5.03,97.196,5.03s52.026,23.54,52.026,52.473
			C149.223,86.438,125.884,109.978,97.196,109.978z"/>
		<path fill="#777777" d="M97.196,10.061c25.914,0,46.996,21.283,46.996,47.442c0,26.161-21.083,47.444-46.996,47.444
			S50.201,83.664,50.201,57.503C50.201,31.344,71.283,10.061,97.196,10.061 M97.196,0C65.685,0,40.14,25.746,40.14,57.503
			c0,31.758,25.545,57.504,57.057,57.504c31.51,0,57.057-25.746,57.057-57.504C154.253,25.746,128.707,0,97.196,0L97.196,0z"/>
	</g>
	<g>
		<path d="M165.664,109.978c-28.688,0-52.026-23.54-52.026-52.474s23.339-52.473,52.026-52.473c28.687,0,52.025,23.54,52.025,52.473
			S194.351,109.978,165.664,109.978z"/>
		<path fill="#777777" d="M165.664,10.062c25.913,0,46.995,21.283,46.995,47.442c0,26.16-21.082,47.443-46.995,47.443
			s-46.996-21.283-46.996-47.443C118.668,31.344,139.751,10.062,165.664,10.062 M165.664,0c-31.513,0-57.057,25.746-57.057,57.503
			c0,31.759,25.544,57.504,57.057,57.504c31.511,0,57.056-25.745,57.056-57.504C222.72,25.746,197.175,0,165.664,0L165.664,0z"/>
	</g>
	<path fill="#B22859" d="M108.607,57.503c0,18.812,8.965,35.513,22.821,46.004c13.857-10.491,22.824-27.192,22.824-46.005
		c0-18.812-8.967-35.511-22.823-46.002C117.572,21.991,108.607,38.691,108.607,57.503z"/>
</g>
<text transform="matrix(0.9922 0 0 1 73.0449 66.3965)" fill="#EEEEEE" font-family="'MyriadPro-Regular'" font-size="30.3013">doubledi</text>
<text transform="matrix(0.9922 0 0 1 0 147.1055)" fill="#777777" font-family="'MyriadPro-Regular'" font-size="30.3013">mobile development</text>
</svg>
